<?xml version="1.0" encoding="UTF-8" standalone="no"?>
<svg
   xmlns:dc="http://purl.org/dc/elements/1.1/"
   xmlns:cc="http://creativecommons.org/ns#"
   xmlns:rdf="http://www.w3.org/1999/02/22-rdf-syntax-ns#"
   xmlns:svg="http://www.w3.org/2000/svg"
   xmlns="http://www.w3.org/2000/svg"
   xmlns:sodipodi="http://sodipodi.sourceforge.net/DTD/sodipodi-0.dtd"
   xmlns:inkscape="http://www.inkscape.org/namespaces/inkscape"
   width="999.90247pt"
   height="585.67633pt"
   viewBox="0 0 999.90247 585.67633"
   version="1.1"
   id="svg59"
   sodipodi:docname="logo.svg"
   inkscape:version="0.92.2 (5c3e80d, 2017-08-06)">
  <metadata
     id="metadata65">
    <rdf:RDF>
      <cc:Work
         rdf:about="">
        <dc:format>image/svg+xml</dc:format>
        <dc:type
           rdf:resource="http://purl.org/dc/dcmitype/StillImage" />
        <dc:title></dc:title>
      </cc:Work>
    </rdf:RDF>
  </metadata>
  <defs
     id="defs63" />
  <sodipodi:namedview
     pagecolor="#ffffff"
     bordercolor="#666666"
     borderopacity="1"
     objecttolerance="10"
     gridtolerance="10"
     guidetolerance="10"
     inkscape:pageopacity="0"
     inkscape:pageshadow="2"
     inkscape:window-width="1916"
     inkscape:window-height="1041"
     id="namedview61"
     showgrid="false"
     fit-margin-top="0"
     fit-margin-left="0"
     fit-margin-right="0"
     fit-margin-bottom="0"
     inkscape:zoom="0.24161757"
     inkscape:cx="907.79134"
     inkscape:cy="652.60551"
     inkscape:window-x="0"
     inkscape:window-y="18"
     inkscape:window-maximized="0"
     inkscape:current-layer="svg59" />
  <g
     id="#ffffffff"
     transform="translate(-21.06,-219.00117)">
    <path
       d="m 465.48,677.48 c 12.15,-12.24 24.38,-24.42 36.6,-36.59 1.6,1.57 3.2,3.16 4.8,4.76 -13.02,12.72 -25.64,25.85 -38.74,38.48 -1.51,-1.99 -5.73,-4.17 -2.66,-6.65 z"
       id="path2"
       inkscape:connector-curvature="0"
       style="opacity:1;fill:#ffffff" />
    <path
       d="m 548.36,640.9 c 1.59,1.57 3.19,3.17 4.77,4.78 -12.83,12.79 -25.64,25.61 -38.44,38.44 -1.61,-1.59 -3.21,-3.19 -4.8,-4.79 12.84,-12.79 25.64,-25.63 38.47,-38.43 z"
       id="path4"
       inkscape:connector-curvature="0"
       style="opacity:1;fill:#ffffff" />
    <path
       d="m 592.8,642.79 c 2.11,-3.77 8.24,2.47 4.72,4.74 -12.14,12.24 -24.35,24.42 -36.57,36.58 -1.62,-1.58 -3.22,-3.17 -4.81,-4.75 12.31,-12.1 24.4,-24.43 36.66,-36.57 z"
       id="path6"
       inkscape:connector-curvature="0"
       style="opacity:1;fill:#ffffff" />
    <path
       d="m 602.65,679.23 c 12.78,-12.8 25.51,-25.67 38.41,-38.36 1.51,1.6 3.01,3.21 4.51,4.84 -12.82,12.8 -25.53,25.71 -38.48,38.38 -1.5,-1.62 -2.98,-3.23 -4.44,-4.86 z"
       id="path8"
       inkscape:connector-curvature="0"
       style="opacity:1;fill:#ffffff" />
    <path
       d="m 687.25,640.91 c 1.59,1.57 3.17,3.17 4.75,4.77 -12.25,12.19 -24.45,24.46 -36.67,36.69 -2.16,3.02 -5.24,-1 -6.13,-3.17 12.43,-12.99 25.4,-25.5 38.05,-38.29 z"
       id="path10"
       inkscape:connector-curvature="0"
       style="opacity:1;fill:#ffffff" />
    <path
       d="m 695.03,679.35 c 13.02,-12.74 25.63,-25.89 38.77,-38.49 1.47,1.97 5.72,4.11 2.62,6.54 -12.17,12.26 -24.4,24.46 -36.63,36.66 -1.6,-1.57 -3.18,-3.14 -4.76,-4.71 z"
       id="path12"
       inkscape:connector-curvature="0"
       style="opacity:1;fill:#ffffff" />
    <path
       d="m 741.23,679.38 c 13.07,-12.71 25.71,-25.85 38.8,-38.53 1.46,1.61 2.92,3.23 4.37,4.87 -12.77,12.83 -25.52,25.67 -38.41,38.38 -1.59,-1.58 -3.18,-3.15 -4.76,-4.72 z"
       id="path14"
       inkscape:connector-curvature="0"
       style="opacity:1;fill:#ffffff" />
    <path
       d="m 826.18,640.95 c 1.56,1.56 3.13,3.12 4.69,4.7 -12.98,12.7 -25.57,25.79 -38.64,38.4 -1.51,-1.49 -3.02,-2.98 -4.52,-4.45 12.39,-13.3 25.66,-25.75 38.47,-38.65 z"
       id="path16"
       inkscape:connector-curvature="0"
       style="opacity:1;fill:#ffffff" />
    <path
       d="m 872.33,640.88 c 1.6,1.58 3.19,3.18 4.78,4.8 -12.82,12.8 -25.63,25.61 -38.42,38.43 -1.61,-1.58 -3.2,-3.17 -4.78,-4.76 12.86,-12.78 25.63,-25.63 38.42,-38.47 z"
       id="path18"
       inkscape:connector-curvature="0"
       style="opacity:1;fill:#ffffff" />
    <path
       d="m 444.1,696.26 c 150.25,0.13 300.5,0.12 450.75,0 0.03,2.24 0.07,4.49 0.11,6.74 -150.33,0.15 -300.66,0.08 -450.99,0.03 0.04,-2.27 0.08,-4.52 0.13,-6.77 z"
       id="path20"
       inkscape:connector-curvature="0"
       style="opacity:1;fill:#ffffff" />
    <path
       d="m 443.96,721.91 c 150.34,-0.09 300.67,-0.12 451.01,0.02 -0.06,2.24 -0.1,4.49 -0.14,6.75 -150.23,-0.17 -300.47,-0.19 -450.7,0.01 -0.07,-2.26 -0.12,-4.53 -0.17,-6.78 z"
       id="path22"
       inkscape:connector-curvature="0"
       style="opacity:1;fill:#ffffff" />
    <path
       d="m 465.53,749.44 c -3.52,-2.26 2.61,-8.45 4.72,-4.69 12.25,12.13 24.36,24.43 36.63,36.56 -1.57,1.57 -3.15,3.14 -4.72,4.71 -12.25,-12.16 -24.45,-24.37 -36.63,-36.58 z"
       id="path24"
       inkscape:connector-curvature="0"
       style="opacity:1;fill:#ffffff" />
    <path
       d="m 509.88,747.63 c 1.59,-1.61 3.19,-3.2 4.8,-4.77 12.81,12.8 25.62,25.61 38.43,38.42 -1.58,1.59 -3.16,3.18 -4.75,4.76 -12.78,-12.85 -25.64,-25.62 -38.48,-38.41 z"
       id="path26"
       inkscape:connector-curvature="0"
       style="opacity:1;fill:#ffffff" />
    <path
       d="m 556.15,747.62 c 1.59,-1.59 3.19,-3.18 4.8,-4.75 12.24,12.15 24.44,24.36 36.61,36.58 3.06,2.29 -1.27,4.75 -2.67,6.64 -13.06,-12.67 -25.68,-25.79 -38.74,-38.47 z"
       id="path28"
       inkscape:connector-curvature="0"
       style="opacity:1;fill:#ffffff" />
    <path
       d="m 604.43,749.54 c -3.45,-1.87 2.09,-8.34 4.22,-5.19 12.4,12.2 24.65,24.58 36.93,36.92 -1.5,1.62 -3.01,3.22 -4.52,4.83 -12.29,-12.11 -24.44,-24.37 -36.63,-36.56 z"
       id="path30"
       inkscape:connector-curvature="0"
       style="opacity:1;fill:#ffffff" />
    <path
       d="m 650.57,749.4 c -3.06,-2.2 0.96,-5.32 3.2,-6.13 12.98,12.4 25.43,25.41 38.24,38.02 -1.59,1.58 -3.18,3.17 -4.77,4.76 -12.23,-12.21 -24.45,-24.44 -36.67,-36.65 z"
       id="path32"
       inkscape:connector-curvature="0"
       style="opacity:1;fill:#ffffff" />
    <path
       d="m 696.72,749.25 c -3.03,-2.44 1.61,-4.53 3.05,-6.38 12.63,12.8 25.67,25.24 38.01,38.3 -0.85,1.98 -2.58,3.38 -3.97,4.98 -12.56,-12.09 -24.68,-24.65 -37.09,-36.9 z"
       id="path34"
       inkscape:connector-curvature="0"
       style="opacity:1;fill:#ffffff" />
    <path
       d="m 741.47,747.69 c 1.46,-1.64 2.96,-3.25 4.46,-4.85 12.9,12.7 25.65,25.56 38.42,38.38 -1.46,1.62 -2.93,3.22 -4.41,4.83 -12.91,-12.7 -25.63,-25.59 -38.47,-38.36 z"
       id="path36"
       inkscape:connector-curvature="0"
       style="opacity:1;fill:#ffffff" />
    <path
       d="m 792.13,742.82 c 13.13,12.61 25.75,25.74 38.75,38.49 -1.57,1.57 -3.14,3.13 -4.71,4.7 -12.24,-12.16 -24.45,-24.36 -36.63,-36.57 -3.1,-2.37 1.17,-4.71 2.59,-6.62 z"
       id="path38"
       inkscape:connector-curvature="0"
       style="opacity:1;fill:#ffffff" />
    <path
       d="m 833.91,747.66 c 1.58,-1.61 3.17,-3.21 4.78,-4.79 12.79,12.81 25.6,25.61 38.41,38.42 -1.59,1.6 -3.18,3.19 -4.77,4.78 -12.78,-12.83 -25.58,-25.63 -38.42,-38.41 z"
       id="path40"
       inkscape:connector-curvature="0"
       style="opacity:1;fill:#ffffff" />
  </g>
  <g
     id="#000000ff"
     transform="translate(-21.06,-219.00117)">
    <path
       d="m 581.51,466.6 c 10.11,-21.04 37.08,-31.51 58.75,-22.82 118.45,55.44 236.58,111.51 355.06,166.92 21.81,10.59 31.89,39.23 21.58,61.17 -13.41,28.59 -26.71,57.24 -40.41,85.69 -10.56,20.41 -37,29.86 -58.29,21.49 5.83,-14.34 3.86,-29.99 4.18,-45.05 -0.15,-24.01 0.29,-48.03 -0.22,-72.02 -1.62,-28.75 -27.28,-53.47 -56.09,-53.91 -99.69,-0.15 -199.38,-0.06 -299.06,-0.04 -3.94,-0.3 -8.39,0.92 -11.95,-1.18 -16.39,-12.87 -22.15,-37.23 -13.25,-56.1 13.22,-28.06 26.28,-56.19 39.7,-84.15 z"
       id="path43"
       inkscape:connector-curvature="0"
       style="opacity:1;fill:#000000" />
    <path
       d="M 272.91,771.41 C 323.4,661.84 374.5,552.49 425.8,443.29 c 23.08,10.46 45.92,21.47 68.97,31.99 C 443.96,584.69 392.95,694.01 341.9,803.3 318.79,792.91 295.99,781.87 272.91,771.41 Z"
       id="path45"
       inkscape:connector-curvature="0"
       style="opacity:1;fill:#000000" />
    <path
       d="m 445.03,613.27 c 15.29,-33.79 31.01,-67.43 47.01,-100.89 10.7,20.83 20.94,41.92 30.91,63.1 -26.09,12.35 -51.72,25.69 -77.92,37.79 z"
       id="path47"
       inkscape:connector-curvature="0"
       style="opacity:1;fill:#000000" />
    <path
       d="m 21.06,736.15 c 109.45,-53.34 218.54,-107.5 328.2,-160.38 -15.55,35.25 -32.55,69.87 -48.49,104.96 -1.11,3.04 -3.32,5.51 -6.38,6.67 C 214.5,726.19 134.98,765.79 54.98,804.33 42.78,782.16 32.4,758.84 21.06,736.15 Z"
       id="path49"
       inkscape:connector-curvature="0"
       style="opacity:1;fill:#000000" />
    <path
       d="m 471.39,619.54 c 130.53,-0.91 261.12,-0.14 391.67,-0.38 24.65,-0.99 47.36,20.14 48.1,44.8 0.28,31.68 0.17,63.38 0.05,95.06 -0.29,24.28 -21.94,45.6 -46.19,45.62 -129.68,0.05 -259.36,0.05 -389.03,0 -24.22,-0.08 -45.87,-21.34 -46.15,-45.61 -0.19,-31.35 -0.17,-62.71 -0.01,-94.06 0.29,-22.63 19.04,-43.14 41.56,-45.43 m -5.91,57.94 c -3.07,2.48 1.15,4.66 2.66,6.65 13.1,-12.63 25.72,-25.76 38.74,-38.48 -1.6,-1.6 -3.2,-3.19 -4.8,-4.76 -12.22,12.17 -24.45,24.35 -36.6,36.59 m 82.88,-36.58 c -12.83,12.8 -25.63,25.64 -38.47,38.43 1.59,1.6 3.19,3.2 4.8,4.79 12.8,-12.83 25.61,-25.65 38.44,-38.44 -1.58,-1.61 -3.18,-3.21 -4.77,-4.78 m 44.44,1.89 c -12.26,12.14 -24.35,24.47 -36.66,36.57 1.59,1.58 3.19,3.17 4.81,4.75 12.22,-12.16 24.43,-24.34 36.57,-36.58 3.52,-2.27 -2.61,-8.51 -4.72,-4.74 m 9.85,36.44 c 1.46,1.63 2.94,3.24 4.44,4.86 12.95,-12.67 25.66,-25.58 38.48,-38.38 -1.5,-1.63 -3,-3.24 -4.51,-4.84 -12.9,12.69 -25.63,25.56 -38.41,38.36 m 84.6,-38.32 c -12.65,12.79 -25.62,25.3 -38.05,38.29 0.89,2.17 3.97,6.19 6.13,3.17 12.22,-12.23 24.42,-24.5 36.67,-36.69 -1.58,-1.6 -3.16,-3.2 -4.75,-4.77 m 7.78,38.44 c 1.58,1.57 3.16,3.14 4.76,4.71 12.23,-12.2 24.46,-24.4 36.63,-36.66 3.1,-2.43 -1.15,-4.57 -2.62,-6.54 -13.14,12.6 -25.75,25.75 -38.77,38.49 m 46.2,0.03 c 1.58,1.57 3.17,3.14 4.76,4.72 12.89,-12.71 25.64,-25.55 38.41,-38.38 -1.45,-1.64 -2.91,-3.26 -4.37,-4.87 -13.09,12.68 -25.73,25.82 -38.8,38.53 m 84.95,-38.43 c -12.81,12.9 -26.08,25.35 -38.47,38.65 1.5,1.47 3.01,2.96 4.52,4.45 13.07,-12.61 25.66,-25.7 38.64,-38.4 -1.56,-1.58 -3.13,-3.14 -4.69,-4.7 m 46.15,-0.07 c -12.79,12.84 -25.56,25.69 -38.42,38.47 1.58,1.59 3.17,3.18 4.78,4.76 12.79,-12.82 25.6,-25.63 38.42,-38.43 -1.59,-1.62 -3.18,-3.22 -4.78,-4.8 M 444.1,696.26 c -0.05,2.25 -0.09,4.5 -0.13,6.77 150.33,0.05 300.66,0.12 450.99,-0.03 -0.04,-2.25 -0.08,-4.5 -0.11,-6.74 -150.25,0.12 -300.5,0.13 -450.75,0 m -0.14,25.65 c 0.05,2.25 0.1,4.52 0.17,6.78 150.23,-0.2 300.47,-0.18 450.7,-0.01 0.04,-2.26 0.08,-4.51 0.14,-6.75 -150.34,-0.14 -300.67,-0.11 -451.01,-0.02 m 21.57,27.53 c 12.18,12.21 24.38,24.42 36.63,36.58 1.57,-1.57 3.15,-3.14 4.72,-4.71 -12.27,-12.13 -24.38,-24.43 -36.63,-36.56 -2.11,-3.76 -8.24,2.43 -4.72,4.69 m 44.35,-1.81 c 12.84,12.79 25.7,25.56 38.48,38.41 1.59,-1.58 3.17,-3.17 4.75,-4.76 -12.81,-12.81 -25.62,-25.62 -38.43,-38.42 -1.61,1.57 -3.21,3.16 -4.8,4.77 m 46.27,-0.01 c 13.06,12.68 25.68,25.8 38.74,38.47 1.4,-1.89 5.73,-4.35 2.67,-6.64 -12.17,-12.22 -24.37,-24.43 -36.61,-36.58 -1.61,1.57 -3.21,3.16 -4.8,4.75 m 48.28,1.92 c 12.19,12.19 24.34,24.45 36.63,36.56 1.51,-1.61 3.02,-3.21 4.52,-4.83 -12.28,-12.34 -24.53,-24.72 -36.93,-36.92 -2.13,-3.15 -7.67,3.32 -4.22,5.19 m 46.14,-0.14 c 12.22,12.21 24.44,24.44 36.67,36.65 1.59,-1.59 3.18,-3.18 4.77,-4.76 -12.81,-12.61 -25.26,-25.62 -38.24,-38.02 -2.24,0.81 -6.26,3.93 -3.2,6.13 m 46.15,-0.15 c 12.41,12.25 24.53,24.81 37.09,36.9 1.39,-1.6 3.12,-3 3.97,-4.98 -12.34,-13.06 -25.38,-25.5 -38.01,-38.3 -1.44,1.85 -6.08,3.94 -3.05,6.38 m 44.75,-1.56 c 12.84,12.77 25.56,25.66 38.47,38.36 1.48,-1.61 2.95,-3.21 4.41,-4.83 -12.77,-12.82 -25.52,-25.68 -38.42,-38.38 -1.5,1.6 -3,3.21 -4.46,4.85 m 50.66,-4.87 c -1.42,1.91 -5.69,4.25 -2.59,6.62 12.18,12.21 24.39,24.41 36.63,36.57 1.57,-1.57 3.14,-3.13 4.71,-4.7 -13,-12.75 -25.62,-25.88 -38.75,-38.49 m 41.78,4.84 c 12.84,12.78 25.64,25.58 38.42,38.41 1.59,-1.59 3.18,-3.18 4.77,-4.78 -12.81,-12.81 -25.62,-25.61 -38.41,-38.42 -1.61,1.58 -3.2,3.18 -4.78,4.79 z"
       id="path51"
       inkscape:connector-curvature="0"
       style="opacity:1;fill:#000000" />
  </g>
  <g
     id="#ff3535ff"
     transform="translate(-21.06,-219.00117)">
    <path
       d="m 572.72,301.26 c -12.01,-43.25 31.44,-85.52 73.75,-82.06 -19.24,19.93 -29.76,50.07 -19.53,76.91 4.82,13.88 15.08,32.49 32.49,29.4 15.01,-1.14 18.9,-19.47 12.56,-30.86 20.57,10.09 27.2,35.32 28.85,56.42 1.15,25.69 -3.28,51.67 -13.43,75.33 -7.17,10.24 6.47,22.24 16.25,16.23 10.96,-9.02 13.35,-24.03 16.82,-37.01 6.17,20.87 5.84,43.41 1.33,64.6 -25.91,-12.09 -51.62,-24.59 -77.68,-36.34 -21.35,-8.93 -47.1,-2.09 -62.77,14.46 -16.04,20.92 -23.79,46.83 -35.91,70.05 -26.72,-23.92 -36.11,-61.57 -36.24,-96.23 0.49,-32.31 17.8,-65.5 47.78,-79.46 -3.99,9.8 -2.25,32.89 13.29,24.56 13.59,-19.04 5.61,-44.67 2.44,-66 z"
       id="path54"
       inkscape:connector-curvature="0"
       style="opacity:1;fill:#ff3535" />
    <path
       d="m 844.84,407.8 c 21.95,5.82 39.38,29.36 34.24,52.25 -5.01,16.62 -20.17,32.41 -14.8,50.65 7.65,7.43 12.07,-5.74 12.16,-11.87 12.47,14.38 20.59,32.8 15.5,52.14 -36.21,-17.18 -72.54,-34.13 -108.88,-51.04 3.14,-19.98 10.57,-46.1 33.13,-51.14 -8.95,8.74 -2.6,24.88 10.54,22.05 24,-9.75 29.85,-41.64 18.11,-63.04 z"
       id="path56"
       inkscape:connector-curvature="0"
       style="opacity:1;fill:#ff3535" />
  </g>
</svg>
